<?xml version="1.0" encoding="utf-8"?>
<!-- Generator: Adobe Illustrator 19.0.0, SVG Export Plug-In . SVG Version: 6.00 Build 0)  -->
<svg version="1.1" id="Layer_1" xmlns="http://www.w3.org/2000/svg" xmlns:xlink="http://www.w3.org/1999/xlink" x="0px" y="0px"
	 viewBox="-433 435 132 132" style="enable-background:new -433 435 132 132;" xml:space="preserve" fill="currentColor" height="32">
<path d="M-351,501c0,8.8-7.2,16-16,16c-8.8,0-16-7.2-16-16s7.2-16,16-16C-358.2,485-351,492.2-351,501z"/>
<path d="M-327.9,481.6c-0.2-4.7-1-7.2-1.7-8.9c-0.9-2.2-1.9-3.8-3.6-5.5s-3.3-2.7-5.5-3.6c-1.7-0.7-4.2-1.4-8.9-1.7
	c-5.1-0.2-6.6-0.3-19.4-0.3h-4.3v0c-9,0-10.7,0.1-15.1,0.3c-4.7,0.2-7.2,1-8.9,1.7c-2.2,0.9-3.8,1.9-5.5,3.6
	c-1.7,1.7-2.7,3.3-3.6,5.5c-0.7,1.7-1.4,4.2-1.7,8.9c-0.2,5.1-0.3,6.6-0.3,19.4c0,12.8,0,14.3,0.3,19.4c0.2,4.7,1,7.2,1.7,8.9
	c0.9,2.2,1.9,3.8,3.6,5.5s3.3,2.7,5.5,3.6c1.7,0.7,4.2,1.4,8.9,1.7c5.1,0.2,6.6,0.3,19.4,0.3c12.8,0,14.3,0,19.4-0.3
	c4.7-0.2,7.2-1,8.9-1.7c2.2-0.9,3.8-1.9,5.5-3.6s2.7-3.3,3.6-5.5c0.7-1.7,1.4-4.2,1.7-8.9c0.2-5.1,0.3-6.6,0.3-19.4
	S-327.7,486.7-327.9,481.6z M-367,525.7c-13.6,0-24.7-11-24.7-24.7s11-24.7,24.7-24.7c13.6,0,24.7,11,24.7,24.7
	S-353.4,525.6-367,525.7z M-341.4,481.1c-3.2,0-5.8-2.6-5.8-5.8s2.6-5.8,5.8-5.8s5.8,2.6,5.8,5.8S-338.2,481.1-341.4,481.1z
	 M-327.9,481.6c-0.2-4.7-1-7.2-1.7-8.9c-0.9-2.2-1.9-3.8-3.6-5.5s-3.3-2.7-5.5-3.6c-1.7-0.7-4.2-1.4-8.9-1.7
	c-5.1-0.2-6.6-0.3-19.4-0.3h-4.3v0c-9,0-10.7,0.1-15.1,0.3c-4.7,0.2-7.2,1-8.9,1.7c-2.2,0.9-3.8,1.9-5.5,3.6
	c-1.7,1.7-2.7,3.3-3.6,5.5c-0.7,1.7-1.4,4.2-1.7,8.9c-0.2,5.1-0.3,6.6-0.3,19.4c0,12.8,0,14.3,0.3,19.4c0.2,4.7,1,7.2,1.7,8.9
	c0.9,2.2,1.9,3.8,3.6,5.5s3.3,2.7,5.5,3.6c1.7,0.7,4.2,1.4,8.9,1.7c5.1,0.2,6.6,0.3,19.4,0.3c12.8,0,14.3,0,19.4-0.3
	c4.7-0.2,7.2-1,8.9-1.7c2.2-0.9,3.8-1.9,5.5-3.6s2.7-3.3,3.6-5.5c0.7-1.7,1.4-4.2,1.7-8.9c0.2-5.1,0.3-6.6,0.3-19.4
	S-327.7,486.7-327.9,481.6z M-367,525.7c-13.6,0-24.7-11-24.7-24.7s11-24.7,24.7-24.7c13.6,0,24.7,11,24.7,24.7
	S-353.4,525.6-367,525.7z M-341.4,481.1c-3.2,0-5.8-2.6-5.8-5.8s2.6-5.8,5.8-5.8s5.8,2.6,5.8,5.8S-338.2,481.1-341.4,481.1z
	 M-302.1,464.2c-0.4-5.2-1.3-8.7-3.1-12.4c-1.5-3-3.2-5.3-5.6-7.6c-4.3-4.1-9.6-6.6-15.8-7.5c-3-0.4-3.7-0.6-19.2-0.6H-367
	c-27.1,0-35.1,0-36.6,0.2c-5.6,0.5-9,1.3-12.8,3.2c-2.9,1.4-5.2,3.1-7.5,5.5c-4.1,4.3-6.6,9.5-7.5,15.8c-0.4,3-0.6,3.7-0.6,19.2
	c0,5.2,0,12,0,21.1c0,27.1,0,35.1,0.2,36.6c0.5,5.4,1.3,8.8,3.1,12.6c3.5,7.1,10,12.5,17.8,14.5c2.7,0.7,5.6,1.1,9.5,1.3
	c1.6,0.1,18,0.1,34.4,0.1c16.4,0,32.8,0,34.4-0.1c4.4-0.2,7-0.5,9.8-1.3c7.8-2,14.2-7.3,17.8-14.5c1.8-3.6,2.7-7.2,3.1-12.3
	c0.1-1.1,0.1-19,0.1-36.8S-302,465.3-302.1,464.2z M-319.3,520.8c-0.2,5.1-1.1,8.6-2.2,11.7c-1.2,3.2-2.9,5.8-5.5,8.5
	s-5.3,4.3-8.5,5.5c-3,1.2-6.5,2-11.7,2.2c-5.1,0.2-6.8,0.3-19.8,0.3s-14.7-0.1-19.8-0.3c-5.1-0.2-8.6-1-11.7-2.2
	c-3.2-1.2-5.8-2.9-8.5-5.5c-2.7-2.7-4.3-5.3-5.5-8.5c-1.2-3-2-6.5-2.2-11.7c-0.2-5.1-0.3-6.8-0.3-19.8s0.1-14.7,0.3-19.8
	c0.2-5.1,1-8.6,2.2-11.7c1.2-3.2,2.9-5.8,5.5-8.5c2.7-2.7,5.3-4.3,8.5-5.5c3-1.2,6.5-2,11.7-2.2c5.1-0.2,6.8-0.3,19.8-0.3
	s14.7,0.1,19.8,0.3c5.1,0.2,8.6,1,11.7,2.2c3.2,1.2,5.8,2.9,8.5,5.5s4.3,5.4,5.5,8.5c1.2,3,2,6.5,2.2,11.7c0.2,5.1,0.3,6.8,0.3,19.8
	S-319.1,515.7-319.3,520.8z M-329.6,472.7c-0.9-2.2-1.9-3.8-3.6-5.5s-3.3-2.7-5.5-3.6c-1.7-0.7-4.2-1.4-8.9-1.7
	c-5.1-0.2-6.6-0.3-19.4-0.3h-4.3v0c-9,0-10.7,0.1-15.1,0.3c-4.7,0.2-7.2,1-8.9,1.7c-2.2,0.9-3.8,1.9-5.5,3.6
	c-1.7,1.7-2.7,3.3-3.6,5.5c-0.7,1.7-1.4,4.2-1.7,8.9c-0.2,5.1-0.3,6.6-0.3,19.4c0,12.8,0,14.3,0.3,19.4c0.2,4.7,1,7.2,1.7,8.9
	c0.9,2.2,1.9,3.8,3.6,5.5s3.3,2.7,5.5,3.6c1.7,0.7,4.2,1.4,8.9,1.7c5.1,0.2,6.6,0.3,19.4,0.3c12.8,0,14.3,0,19.4-0.3
	c4.7-0.2,7.2-1,8.9-1.7c2.2-0.9,3.8-1.9,5.5-3.6s2.7-3.3,3.6-5.5c0.7-1.7,1.4-4.2,1.7-8.9c0.2-5.1,0.3-6.6,0.3-19.4s0-14.3-0.3-19.4
	C-328.1,476.9-328.9,474.4-329.6,472.7z M-367,525.7c-13.6,0-24.7-11-24.7-24.7s11-24.7,24.7-24.7c13.6,0,24.7,11,24.7,24.7
	S-353.4,525.6-367,525.7z M-341.4,481.1c-3.2,0-5.8-2.6-5.8-5.8s2.6-5.8,5.8-5.8s5.8,2.6,5.8,5.8S-338.2,481.1-341.4,481.1z
	 M-327.9,481.6c-0.2-4.7-1-7.2-1.7-8.9c-0.9-2.2-1.9-3.8-3.6-5.5s-3.3-2.7-5.5-3.6c-1.7-0.7-4.2-1.4-8.9-1.7
	c-5.1-0.2-6.6-0.3-19.4-0.3h-4.3v0c-9,0-10.7,0.1-15.1,0.3c-4.7,0.2-7.2,1-8.9,1.7c-2.2,0.9-3.8,1.9-5.5,3.6
	c-1.7,1.7-2.7,3.3-3.6,5.5c-0.7,1.7-1.4,4.2-1.7,8.9c-0.2,5.1-0.3,6.6-0.3,19.4c0,12.8,0,14.3,0.3,19.4c0.2,4.7,1,7.2,1.7,8.9
	c0.9,2.2,1.9,3.8,3.6,5.5s3.3,2.7,5.5,3.6c1.7,0.7,4.2,1.4,8.9,1.7c5.1,0.2,6.6,0.3,19.4,0.3c12.8,0,14.3,0,19.4-0.3
	c4.7-0.2,7.2-1,8.9-1.7c2.2-0.9,3.8-1.9,5.5-3.6s2.7-3.3,3.6-5.5c0.7-1.7,1.4-4.2,1.7-8.9c0.2-5.1,0.3-6.6,0.3-19.4
	S-327.7,486.7-327.9,481.6z M-367,525.7c-13.6,0-24.7-11-24.7-24.7s11-24.7,24.7-24.7c13.6,0,24.7,11,24.7,24.7
	S-353.4,525.6-367,525.7z M-341.4,481.1c-3.2,0-5.8-2.6-5.8-5.8s2.6-5.8,5.8-5.8s5.8,2.6,5.8,5.8S-338.2,481.1-341.4,481.1z
	 M-327.9,481.6c-0.2-4.7-1-7.2-1.7-8.9c-0.9-2.2-1.9-3.8-3.6-5.5s-3.3-2.7-5.5-3.6c-1.7-0.7-4.2-1.4-8.9-1.7
	c-5.1-0.2-6.6-0.3-19.4-0.3h-4.3v0c-9,0-10.7,0.1-15.1,0.3c-4.7,0.2-7.2,1-8.9,1.7c-2.2,0.9-3.8,1.9-5.5,3.6
	c-1.7,1.7-2.7,3.3-3.6,5.5c-0.7,1.7-1.4,4.2-1.7,8.9c-0.2,5.1-0.3,6.6-0.3,19.4c0,12.8,0,14.3,0.3,19.4c0.2,4.7,1,7.2,1.7,8.9
	c0.9,2.2,1.9,3.8,3.6,5.5s3.3,2.7,5.5,3.6c1.7,0.7,4.2,1.4,8.9,1.7c5.1,0.2,6.6,0.3,19.4,0.3c12.8,0,14.3,0,19.4-0.3
	c4.7-0.2,7.2-1,8.9-1.7c2.2-0.9,3.8-1.9,5.5-3.6s2.7-3.3,3.6-5.5c0.7-1.7,1.4-4.2,1.7-8.9c0.2-5.1,0.3-6.6,0.3-19.4
	S-327.7,486.7-327.9,481.6z M-367,525.7c-13.6,0-24.7-11-24.7-24.7s11-24.7,24.7-24.7c13.6,0,24.7,11,24.7,24.7
	S-353.4,525.6-367,525.7z M-341.4,481.1c-3.2,0-5.8-2.6-5.8-5.8s2.6-5.8,5.8-5.8s5.8,2.6,5.8,5.8S-338.2,481.1-341.4,481.1z"/>
</svg>
